<mxfile host="app.diagrams.net" modified="2023-04-20T06:06:19.895Z" agent="Mozilla/5.0 (Macintosh; Intel Mac OS X 10_15_7) AppleWebKit/537.36 (KHTML, like Gecko) Chrome/112.0.0.0 Safari/537.36" etag="TxBYwOBFu-EFnb3sQh70" version="21.1.5" type="github">
  <diagram name="Page-1" id="ga67RDkvb92EsArFF9TA">
    <mxGraphModel dx="954" dy="623" grid="1" gridSize="10" guides="1" tooltips="1" connect="1" arrows="1" fold="1" page="1" pageScale="1" pageWidth="850" pageHeight="1100" math="0" shadow="0">
      <root>
        <mxCell id="0" />
        <mxCell id="1" parent="0" />
        <mxCell id="ZP7MdUC7tawqgYdxDhUl-28" value="" style="group;fillColor=#dae8fc;strokeColor=#6c8ebf;" vertex="1" connectable="0" parent="1">
          <mxGeometry x="40" y="350" width="770" height="310" as="geometry" />
        </mxCell>
        <mxCell id="ZP7MdUC7tawqgYdxDhUl-3" value="" style="rounded=0;whiteSpace=wrap;html=1;dashed=1;dashPattern=12 12;" vertex="1" parent="ZP7MdUC7tawqgYdxDhUl-28">
          <mxGeometry width="770" height="310" as="geometry" />
        </mxCell>
        <mxCell id="ZP7MdUC7tawqgYdxDhUl-13" value="" style="group" vertex="1" connectable="0" parent="ZP7MdUC7tawqgYdxDhUl-28">
          <mxGeometry x="60" y="80" width="120" height="150" as="geometry" />
        </mxCell>
        <mxCell id="ZP7MdUC7tawqgYdxDhUl-5" value="" style="rounded=0;whiteSpace=wrap;html=1;fillColor=#dae8fc;strokeColor=#6c8ebf;" vertex="1" parent="ZP7MdUC7tawqgYdxDhUl-13">
          <mxGeometry width="120" height="150" as="geometry" />
        </mxCell>
        <mxCell id="ZP7MdUC7tawqgYdxDhUl-11" value="&lt;b&gt;巡检节点&lt;/b&gt;" style="text;html=1;strokeColor=none;fillColor=none;align=center;verticalAlign=middle;whiteSpace=wrap;rounded=0;" vertex="1" parent="ZP7MdUC7tawqgYdxDhUl-13">
          <mxGeometry x="30" y="70" width="60" height="30" as="geometry" />
        </mxCell>
        <mxCell id="ZP7MdUC7tawqgYdxDhUl-12" value="Node 1" style="text;html=1;strokeColor=none;fillColor=none;align=center;verticalAlign=middle;whiteSpace=wrap;rounded=0;" vertex="1" parent="ZP7MdUC7tawqgYdxDhUl-13">
          <mxGeometry x="10" y="10" width="60" height="30" as="geometry" />
        </mxCell>
        <mxCell id="ZP7MdUC7tawqgYdxDhUl-27" value="" style="group" vertex="1" connectable="0" parent="ZP7MdUC7tawqgYdxDhUl-28">
          <mxGeometry x="190" y="70" width="500" height="160" as="geometry" />
        </mxCell>
        <mxCell id="ZP7MdUC7tawqgYdxDhUl-18" value="" style="group" vertex="1" connectable="0" parent="ZP7MdUC7tawqgYdxDhUl-27">
          <mxGeometry x="380" width="120" height="150" as="geometry" />
        </mxCell>
        <mxCell id="ZP7MdUC7tawqgYdxDhUl-19" value="" style="rounded=0;whiteSpace=wrap;html=1;fillColor=#dae8fc;strokeColor=#6c8ebf;" vertex="1" parent="ZP7MdUC7tawqgYdxDhUl-18">
          <mxGeometry x="10" y="10" width="120" height="150" as="geometry" />
        </mxCell>
        <mxCell id="ZP7MdUC7tawqgYdxDhUl-20" value="&lt;b&gt;巡检节点&lt;/b&gt;" style="text;html=1;strokeColor=none;fillColor=none;align=center;verticalAlign=middle;whiteSpace=wrap;rounded=0;" vertex="1" parent="ZP7MdUC7tawqgYdxDhUl-18">
          <mxGeometry x="30" y="70" width="60" height="30" as="geometry" />
        </mxCell>
        <mxCell id="ZP7MdUC7tawqgYdxDhUl-21" value="Node N" style="text;html=1;strokeColor=none;fillColor=none;align=center;verticalAlign=middle;whiteSpace=wrap;rounded=0;" vertex="1" parent="ZP7MdUC7tawqgYdxDhUl-18">
          <mxGeometry x="10" y="10" width="60" height="30" as="geometry" />
        </mxCell>
        <mxCell id="ZP7MdUC7tawqgYdxDhUl-15" value="" style="rounded=0;whiteSpace=wrap;html=1;fillColor=#dae8fc;strokeColor=#6c8ebf;" vertex="1" parent="ZP7MdUC7tawqgYdxDhUl-27">
          <mxGeometry x="75" y="10" width="120" height="150" as="geometry" />
        </mxCell>
        <mxCell id="ZP7MdUC7tawqgYdxDhUl-17" value="Node 2" style="text;html=1;strokeColor=none;fillColor=none;align=center;verticalAlign=middle;whiteSpace=wrap;rounded=0;" vertex="1" parent="ZP7MdUC7tawqgYdxDhUl-27">
          <mxGeometry x="90" y="20" width="60" height="30" as="geometry" />
        </mxCell>
        <mxCell id="ZP7MdUC7tawqgYdxDhUl-16" value="&lt;b&gt;巡检节点&lt;/b&gt;" style="text;html=1;strokeColor=none;fillColor=none;align=center;verticalAlign=middle;whiteSpace=wrap;rounded=0;" vertex="1" parent="ZP7MdUC7tawqgYdxDhUl-27">
          <mxGeometry x="105" y="80" width="60" height="30" as="geometry" />
        </mxCell>
        <mxCell id="ZP7MdUC7tawqgYdxDhUl-23" value="" style="endArrow=none;dashed=1;html=1;dashPattern=1 3;strokeWidth=2;rounded=0;" edge="1" parent="ZP7MdUC7tawqgYdxDhUl-27">
          <mxGeometry width="50" height="50" relative="1" as="geometry">
            <mxPoint x="370" y="85" as="sourcePoint" />
            <mxPoint x="210" y="85" as="targetPoint" />
          </mxGeometry>
        </mxCell>
        <mxCell id="ZP7MdUC7tawqgYdxDhUl-24" value="" style="endArrow=none;dashed=1;html=1;dashPattern=1 3;strokeWidth=2;rounded=0;" edge="1" parent="ZP7MdUC7tawqgYdxDhUl-27">
          <mxGeometry width="50" height="50" relative="1" as="geometry">
            <mxPoint x="60" y="79" as="sourcePoint" />
            <mxPoint y="79" as="targetPoint" />
          </mxGeometry>
        </mxCell>
        <mxCell id="ZP7MdUC7tawqgYdxDhUl-29" value="" style="shape=singleArrow;direction=south;whiteSpace=wrap;html=1;" vertex="1" parent="1">
          <mxGeometry x="380" y="230" width="60" height="100" as="geometry" />
        </mxCell>
        <mxCell id="ZP7MdUC7tawqgYdxDhUl-31" value="" style="group" vertex="1" connectable="0" parent="1">
          <mxGeometry x="350" y="150" width="120" height="60" as="geometry" />
        </mxCell>
        <mxCell id="ZP7MdUC7tawqgYdxDhUl-1" value="" style="rounded=0;whiteSpace=wrap;html=1;fillColor=#ffe6cc;strokeColor=#d79b00;" vertex="1" parent="ZP7MdUC7tawqgYdxDhUl-31">
          <mxGeometry width="120" height="60" as="geometry" />
        </mxCell>
        <mxCell id="ZP7MdUC7tawqgYdxDhUl-2" value="调度器" style="text;html=1;strokeColor=none;fillColor=none;align=center;verticalAlign=middle;whiteSpace=wrap;rounded=0;" vertex="1" parent="ZP7MdUC7tawqgYdxDhUl-31">
          <mxGeometry x="30" y="15" width="60" height="30" as="geometry" />
        </mxCell>
      </root>
    </mxGraphModel>
  </diagram>
</mxfile>
